<?xml version="1.0" encoding="utf-8"?>
<!-- Generator: Adobe Illustrator 25.3.1, SVG Export Plug-In . SVG Version: 6.00 Build 0)  -->
<svg version="1.1" id="Layer_1" xmlns="http://www.w3.org/2000/svg" xmlns:xlink="http://www.w3.org/1999/xlink" x="0px" y="0px"
	 viewBox="0 0 24 24" style="enable-background:new 0 0 24 24;" xml:space="preserve">
<style type="text/css">
	.st0{fill:none;stroke:#0047AB;stroke-width:2;stroke-linecap:round;stroke-linejoin:round;}
</style>
<path class="st0" d="M4.2,2h15.6C21,2,22,3,22,4.2v15.6c0,1.2-1,2.2-2.2,2.2H4.2C3,22,2,21,2,19.8V4.2C2,3,3,2,4.2,2z"/>
<line class="st0" x1="7" y1="2" x2="7" y2="22"/>
<line class="st0" x1="17" y1="2" x2="17" y2="22"/>
<line class="st0" x1="2" y1="12" x2="22" y2="12"/>
<line class="st0" x1="2" y1="7" x2="7" y2="7"/>
<line class="st0" x1="2" y1="17" x2="7" y2="17"/>
<line class="st0" x1="17" y1="17" x2="22" y2="17"/>
<line class="st0" x1="17" y1="7" x2="22" y2="7"/>
</svg>
